<svg id="Insta" xmlns="http://www.w3.org/2000/svg" width="35" height="33" viewBox="0 0 35 33">
  <path id="Path_3" data-name="Path 3" d="M16.5,2.933a50.593,50.593,0,0,1,6.6.183,8.5,8.5,0,0,1,3.117.55,6.439,6.439,0,0,1,3.117,3.117,8.5,8.5,0,0,1,.55,3.117c0,1.65.183,2.2.183,6.6a50.592,50.592,0,0,1-.183,6.6,8.5,8.5,0,0,1-.55,3.117,6.439,6.439,0,0,1-3.117,3.117,8.5,8.5,0,0,1-3.117.55c-1.65,0-2.2.183-6.6.183a50.592,50.592,0,0,1-6.6-.183,8.5,8.5,0,0,1-3.117-.55,6.439,6.439,0,0,1-3.117-3.117,8.5,8.5,0,0,1-.55-3.117c0-1.65-.183-2.2-.183-6.6a50.592,50.592,0,0,1,.183-6.6,8.5,8.5,0,0,1,.55-3.117A6.584,6.584,0,0,1,4.95,4.95,3.1,3.1,0,0,1,6.783,3.667,8.5,8.5,0,0,1,9.9,3.117a50.592,50.592,0,0,1,6.6-.183M16.5,0A54.17,54.17,0,0,0,9.717.183,11.318,11.318,0,0,0,5.683.917,7.177,7.177,0,0,0,2.75,2.75,7.177,7.177,0,0,0,.917,5.683,8.353,8.353,0,0,0,.183,9.717,54.17,54.17,0,0,0,0,16.5a54.17,54.17,0,0,0,.183,6.783,11.318,11.318,0,0,0,.733,4.033A7.177,7.177,0,0,0,2.75,30.25a7.177,7.177,0,0,0,2.933,1.833,11.318,11.318,0,0,0,4.033.733A54.171,54.171,0,0,0,16.5,33a54.171,54.171,0,0,0,6.783-.183,11.318,11.318,0,0,0,4.033-.733,7.692,7.692,0,0,0,4.767-4.767,11.318,11.318,0,0,0,.733-4.033c0-1.833.183-2.383.183-6.783a54.171,54.171,0,0,0-.183-6.783,11.318,11.318,0,0,0-.733-4.033A7.177,7.177,0,0,0,30.25,2.75,7.177,7.177,0,0,0,27.317.917,11.318,11.318,0,0,0,23.283.183,54.17,54.17,0,0,0,16.5,0m0,8.067A8.3,8.3,0,0,0,8.067,16.5,8.433,8.433,0,1,0,16.5,8.067M16.5,22A5.4,5.4,0,0,1,11,16.5,5.4,5.4,0,0,1,16.5,11,5.4,5.4,0,0,1,22,16.5,5.4,5.4,0,0,1,16.5,22M25.3,5.683A2.017,2.017,0,1,0,27.317,7.7,2.035,2.035,0,0,0,25.3,5.683" fill="#fff" fill-rule="evenodd"/>
</svg>
