<svg id="Logo" xmlns="http://www.w3.org/2000/svg" width="502.74" height="127.212" viewBox="0 0 502.74 127.212">
  <path id="Path_67" data-name="Path 67" d="M134.775,135.029V106.244a1.345,1.345,0,0,1,1.49-1.49h8.65a15.872,15.872,0,1,1,0,31.744h-8.65a1.366,1.366,0,0,1-1.49-1.469Zm10.14-1.014A12.6,12.6,0,0,0,158.1,120.647c0-7.408-4.76-13.409-13.182-13.409h-7.429v26.778Z" transform="translate(-134.766 -9.872)" fill="#fff"/>
  <path id="Path_68" data-name="Path 68" d="M155.294,135.028V106.243a1.345,1.345,0,0,1,1.469-1.49h17.569a1.242,1.242,0,1,1,0,2.483H158.005v11.754h16a1.242,1.242,0,0,1,0,2.463h-16v12.561h16.327a1.242,1.242,0,1,1,0,2.483H156.764a1.345,1.345,0,0,1-1.469-1.469Z" transform="translate(-112.822 -9.87)" fill="#fff"/>
  <path id="Path_69" data-name="Path 69" d="M172.2,132.151a1.386,1.386,0,0,1,1.345-1.386,1.593,1.593,0,0,1,.952.331,12.664,12.664,0,0,0,8.981,3.766c6.518,0,8.381-3.621,8.381-6.332,0-4.47-4.242-5.711-8.712-6.891-4.987-1.386-10.347-2.814-10.347-8.671,0-5.173,4.677-8.464,10.574-8.464a13.658,13.658,0,0,1,9.788,3.663,1.242,1.242,0,0,1,.538.993,1.386,1.386,0,0,1-1.386,1.345,1.1,1.1,0,0,1-.848-.331,11.319,11.319,0,0,0-8.277-3.187c-4.387,0-7.574,2.421-7.574,5.836,0,3.766,3.952,4.863,8.277,6,5.153,1.469,10.761,3.1,10.761,9.519,0,4.139-2.711,9-11.278,9a15.086,15.086,0,0,1-10.8-4.139,1.18,1.18,0,0,1-.372-1.055Z" transform="translate(-94.753 -10.139)" fill="#fff"/>
  <path id="Path_70" data-name="Path 70" d="M190.82,135.327V106.066a1.386,1.386,0,0,1,1.386-1.386,1.345,1.345,0,0,1,1.324,1.386v29.261a1.366,1.366,0,0,1-1.324,1.386,1.407,1.407,0,0,1-1.387-1.386Z" transform="translate(-74.824 -9.942)" fill="#fff"/>
  <path id="Path_71" data-name="Path 71" d="M228.1,122.486v8.526a2.069,2.069,0,0,1-.766,1.8A16.307,16.307,0,1,1,216.053,104.5a15.065,15.065,0,0,1,11.092,4.428,1.1,1.1,0,0,1,.331.848,1.221,1.221,0,0,1-1.283,1.283,1.366,1.366,0,0,1-.869-.331,13.12,13.12,0,0,0-9.271-3.746c-7.47,0-13.223,5.649-13.223,13.927A13.244,13.244,0,0,0,216.053,134.9a13.513,13.513,0,0,0,9.333-3.849v-7.615H214.5a1.221,1.221,0,1,1,0-2.421h12.168a1.345,1.345,0,0,1,1.428,1.469Z" transform="translate(-65.022 -10.137)" fill="#fff"/>
  <path id="Path_72" data-name="Path 72" d="M243.787,135.989l-19.555-26.9v26.157a1.386,1.386,0,0,1-1.345,1.386,1.407,1.407,0,0,1-1.386-1.386V106.5a1.78,1.78,0,0,1,1.78-1.821,1.842,1.842,0,0,1,1.469.766l19.411,26.405V106.066a1.345,1.345,0,0,1,1.324-1.386,1.386,1.386,0,0,1,1.386,1.386v28.971a1.738,1.738,0,0,1-1.656,1.718A1.656,1.656,0,0,1,243.787,135.989Z" transform="translate(-42.016 -9.942)" fill="#fff"/>
  <path id="Path_73" data-name="Path 73" d="M178.249,105.244v3.725a16.555,16.555,0,0,1-4.966,12.064,16.286,16.286,0,0,1-12,5.008H135.31V58.911h25.97a16.286,16.286,0,0,1,12,5.008,16.555,16.555,0,0,1,4.966,12.064v3.58a16.72,16.72,0,0,1-5.815,12.851A16.865,16.865,0,0,1,178.249,105.244ZM169.558,79.48v-3.5a8.277,8.277,0,0,0-2.5-6.063,8.133,8.133,0,0,0-5.98-2.545H143.794V88.068h17.279a8.277,8.277,0,0,0,5.96-2.5,8.091,8.091,0,0,0,2.525-6.084Zm0,29.488V105.43a8.277,8.277,0,0,0-2.5-6.063,8.133,8.133,0,0,0-5.98-2.525H143.9v20.694h17.176a8.278,8.278,0,0,0,5.96-2.483,8.091,8.091,0,0,0,2.525-6.084Z" transform="translate(-134.184 -58.888)" fill="#fff"/>
  <path id="Path_74" data-name="Path 74" d="M163.32,120.154l17.093-58.087a4.139,4.139,0,0,1,4.284-3.145,3.725,3.725,0,0,1,3.994,2.669L205.6,120.548a4.272,4.272,0,0,1-.993,4.284,3.766,3.766,0,0,1-2.794,1.221,3.973,3.973,0,0,1-4.139-3.063L194.3,111.463H174.867l-3.683,12.416a2.566,2.566,0,0,1-1.283,1.531,4.284,4.284,0,0,1-2.442.724,4.241,4.241,0,0,1-4.3-4.325,5.3,5.3,0,0,1,.166-1.655Zm21.314-41.573-7.3,24.294h14.486Z" transform="translate(-104.417 -58.899)" fill="#fff"/>
  <path id="Path_75" data-name="Path 75" d="M214.019,117.567h15.313a4.284,4.284,0,0,1,3.063,1.242,4.174,4.174,0,0,1,0,6.022,4.263,4.263,0,0,1-3.063,1.221H213.46a12.188,12.188,0,0,1-6.208-1.9,11.506,11.506,0,0,1-4.511-4.3l-9.788-18.935a19.017,19.017,0,0,1-2.069-8.4,17.279,17.279,0,0,1,1.862-8.277l9.892-18.624a13.347,13.347,0,0,1,4.408-4.635A10.347,10.347,0,0,1,212.8,58.9H229.58a4.015,4.015,0,0,1,3,1.262,4.139,4.139,0,0,1,1.242,2.98,4.284,4.284,0,0,1-1.242,3.063,4.139,4.139,0,0,1-3,1.283h-16.1a3.746,3.746,0,0,0-3.29,2.38l-9.416,17.569a10.2,10.2,0,0,0-1.1,4.9,11.01,11.01,0,0,0,1.2,5.256l8.981,17.383A4.242,4.242,0,0,0,214.019,117.567Z" transform="translate(-74.763 -58.898)" fill="#fff"/>
  <path id="Path_76" data-name="Path 76" d="M218.461,121.809V63.246a4.139,4.139,0,0,1,1.242-3.083,4.014,4.014,0,0,1,3-1.262,4.139,4.139,0,0,1,4.242,4.346V83.319l27.191-23.28a4.511,4.511,0,0,1,3.166-1.117,3.911,3.911,0,0,1,2.98,1.3,4.139,4.139,0,0,1,1.221,2.98,3.787,3.787,0,0,1-1.386,2.918L229.325,92.217l30.833,26.633A3.435,3.435,0,0,1,261.4,121.6a4.408,4.408,0,0,1-1.242,3.021,3.953,3.953,0,0,1-3.042,1.366,4.553,4.553,0,0,1-3.083-1.159l-27.088-23.239V121.83a4.242,4.242,0,1,1-8.484,0Z" transform="translate(-45.267 -58.898)" fill="#fff"/>
  <path id="Path_77" data-name="Path 77" d="M255.824,58.91h22.1a11.05,11.05,0,0,1,7.657,3.414A10.906,10.906,0,0,1,289.2,70.6a4.354,4.354,0,0,1-4.139,4.346,3.683,3.683,0,0,1-2.98-.993,10.822,10.822,0,0,1-1.552-3.663,3.166,3.166,0,0,0-3.27-2.669H256.176c-1.014,0-1.511.331-1.511.973a2.214,2.214,0,0,0,.621,1.428l31.558,40.228a10.14,10.14,0,0,1,2.276,6.208,9.292,9.292,0,0,1-2.669,6.787,8.278,8.278,0,0,1-6.208,2.876H257.417a11.651,11.651,0,0,1-11.257-11.154c0-3.166,1.49-4.76,4.449-4.76a3.932,3.932,0,0,1,2.918,1.242,4.139,4.139,0,0,1,1.221,2.918,3.021,3.021,0,0,0,.931,2.256,3.187,3.187,0,0,0,2.359.91h21.107c.911,0,1.366-.352,1.366-1.076a2.173,2.173,0,0,0-.621-1.324L248.4,74.927a10.037,10.037,0,0,1-2.235-6.208A9.519,9.519,0,0,1,249,61.869,9.209,9.209,0,0,1,255.824,58.91Z" transform="translate(-15.645 -58.887)" fill="#fff"/>
  <path id="Path_78" data-name="Path 78" d="M273.86,70.381V59H316.7V70.568a4.015,4.015,0,0,1-1.159,2.918,4.41,4.41,0,0,1-7.512-2.98V67.4h-8.588v54.3a4.139,4.139,0,0,1-4.242,4.139,4.242,4.242,0,0,1-3.083-1.221,4.139,4.139,0,0,1-1.262-3.021V67.4h-8.422v2.98a4.242,4.242,0,1,1-8.484,0Z" transform="translate(13.976 -58.79)" fill="#fff"/>
  <path id="Path_79" data-name="Path 79" d="M301.812,120.154l17.114-58.087a4.139,4.139,0,0,1,4.284-3.145,3.725,3.725,0,0,1,3.994,2.669l16.927,58.956a4.781,4.781,0,0,1,.186,1.262,4.139,4.139,0,0,1-1.2,3.021,3.766,3.766,0,0,1-2.794,1.221,3.973,3.973,0,0,1-4.139-3.063l-3.373-11.526H313.379L309.7,123.879a2.566,2.566,0,0,1-1.283,1.531,4.284,4.284,0,0,1-2.442.724,4.241,4.241,0,0,1-4.3-4.325,5.3,5.3,0,0,1,.145-1.655Zm21.252-41.573L315.8,102.875h14.341Z" transform="translate(43.698 -58.899)" fill="#fff"/>
  <path id="Path_80" data-name="Path 80" d="M354.026,58.911H368.1a4.139,4.139,0,0,1,4.263,4.325,3.994,3.994,0,0,1-1.345,3.1,4.139,4.139,0,0,1-2.9,1.242H354.646a4.139,4.139,0,0,0-3.435,1.842l-11.9,15.334a7.615,7.615,0,0,0-1.511,5.049v23.4a4.138,4.138,0,0,0,1.242,3.083,4.014,4.014,0,0,0,3,1.262h17.279a4.3,4.3,0,0,0,4.242-4.139v-9.291h-8.774a4.139,4.139,0,0,1-3.042-1.242,4.3,4.3,0,0,1,0-6,4.139,4.139,0,0,1,3.042-1.242H372.07v17.672a12.747,12.747,0,0,1-12.747,12.727H342.044a12.416,12.416,0,0,1-9.064-3.725,12.251,12.251,0,0,1-3.766-9V89.827a16.844,16.844,0,0,1,3.394-10.657l12.416-15.913a11.766,11.766,0,0,1,9-4.346Z" transform="translate(73.161 -58.888)" fill="#fff"/>
  <path id="Path_81" data-name="Path 81" d="M395.511,67.5H365.505V88.067h12.934a4.3,4.3,0,0,1,3,7.326,4.015,4.015,0,0,1-3,1.262H365.5v20.9h30.109a4.139,4.139,0,0,1,2.98,1.242,4.014,4.014,0,0,1,1.262,3,4.139,4.139,0,0,1-1.283,3.021,4.263,4.263,0,0,1-3.063,1.221H357V58.91h38.49a4.387,4.387,0,0,1,4.346,4.346,4.347,4.347,0,0,1-4.325,4.242Z" transform="translate(102.883 -58.887)" fill="#fff"/>
</svg>
