<?xml version="1.0" encoding="utf-8"?>
<!-- Generator: Adobe Illustrator 24.0.0, SVG Export Plug-In . SVG Version: 6.00 Build 0)  -->
<svg version="1.1" id="Layer_1" xmlns="http://www.w3.org/2000/svg" xmlns:xlink="http://www.w3.org/1999/xlink" x="0px" y="0px"
	 viewBox="0 0 184.6 66" style="enable-background:new 0 0 184.6 66;" xml:space="preserve">
<style type="text/css">
	.st0{enable-background:new    ;}
	.st1{fill:#3B3B3C;}
</style>
<title>Untitled-1</title>
<g id="Terug_naar_boven">
	<g class="st0">
		<path class="st1" d="M5.7,59.6V45.7H0.5v-1.9H13v1.9H7.8v13.9H5.7z"/>
	</g>
	<g class="st0">
		<path class="st1" d="M19.9,55.9l2,0.2c-0.3,1.2-0.9,2.1-1.8,2.7c-0.9,0.6-1.9,1-3.3,1c-1.7,0-3-0.5-4-1.5s-1.5-2.5-1.5-4.3
			c0-1.9,0.5-3.4,1.5-4.5s2.3-1.6,3.8-1.6s2.8,0.5,3.7,1.6s1.5,2.5,1.5,4.4c0,0.1,0,0.3,0,0.5h-8.5c0.1,1.3,0.4,2.2,1.1,2.9
			c0.6,0.7,1.4,1,2.4,1c0.7,0,1.3-0.2,1.8-0.6C19.2,57.3,19.6,56.7,19.9,55.9z M13.5,52.8h6.4c-0.1-1-0.3-1.7-0.7-2.2
			c-0.6-0.7-1.4-1.1-2.4-1.1c-0.9,0-1.6,0.3-2.2,0.9C13.9,51,13.6,51.8,13.5,52.8z"/>
		<path class="st1" d="M25.4,59.6V48.2h1.7v1.7c0.4-0.8,0.9-1.3,1.2-1.6s0.8-0.4,1.2-0.4c0.7,0,1.3,0.2,2,0.6l-0.7,1.8
			c-0.5-0.3-0.9-0.4-1.4-0.4c-0.4,0-0.8,0.1-1.1,0.4c-0.3,0.3-0.6,0.6-0.7,1.1c-0.2,0.7-0.3,1.4-0.3,2.3v6L25.4,59.6L25.4,59.6z"/>
		<path class="st1" d="M41.3,59.6v-1.7c-0.9,1.3-2.1,1.9-3.6,1.9c-0.7,0-1.3-0.1-1.9-0.4c-0.6-0.3-1-0.6-1.3-1S34,57.5,33.9,57
			c-0.1-0.4-0.1-1-0.1-1.8v-7.1h1.9v6.3c0,1,0,1.7,0.1,2c0.1,0.5,0.4,0.9,0.8,1.2c0.4,0.3,0.9,0.4,1.5,0.4s1.1-0.1,1.6-0.4
			c0.5-0.3,0.9-0.7,1.1-1.2c0.2-0.5,0.3-1.3,0.3-2.2v-6.1H43v11.4L41.3,59.6L41.3,59.6z"/>
		<path class="st1" d="M46.8,60.5l1.9,0.3c0.1,0.6,0.3,1,0.7,1.3c0.5,0.4,1.1,0.5,2,0.5s1.6-0.2,2.1-0.5c0.5-0.4,0.8-0.9,1-1.5
			c0.1-0.4,0.1-1.2,0.1-2.5c-0.8,1-1.9,1.5-3.2,1.5c-1.6,0-2.8-0.6-3.6-1.7s-1.3-2.5-1.3-4.1c0-1.1,0.2-2.1,0.6-3
			c0.4-0.9,1-1.6,1.7-2.1s1.6-0.8,2.6-0.8c1.3,0,2.5,0.5,3.3,1.6v-1.4h1.8V58c0,1.8-0.2,3-0.5,3.8c-0.4,0.7-0.9,1.3-1.7,1.8
			s-1.7,0.6-2.9,0.6c-1.4,0-2.5-0.3-3.3-0.9C47.2,62.7,46.8,61.8,46.8,60.5z M48.4,53.7c0,1.5,0.3,2.6,0.9,3.3c0.6,0.7,1.3,1,2.2,1
			s1.6-0.3,2.2-1c0.6-0.7,0.9-1.8,0.9-3.2s-0.3-2.4-0.9-3.2c-0.6-0.7-1.4-1.1-2.2-1.1c-0.9,0-1.6,0.3-2.2,1
			C48.7,51.3,48.4,52.3,48.4,53.7z"/>
		<path class="st1" d="M67.7,59.6V48.2h1.7v1.6c0.8-1.3,2-1.9,3.6-1.9c0.7,0,1.3,0.1,1.9,0.4c0.6,0.2,1,0.6,1.3,1s0.5,0.9,0.6,1.4
			c0.1,0.4,0.1,1,0.1,1.9v7H75v-6.9c0-0.8-0.1-1.4-0.2-1.8c-0.2-0.4-0.4-0.7-0.8-0.9s-0.8-0.3-1.3-0.3c-0.8,0-1.5,0.3-2.1,0.8
			s-0.9,1.5-0.9,3v6.2h-2V59.6z"/>
		<path class="st1" d="M88.5,58.2c-0.7,0.6-1.4,1-2.1,1.3s-1.4,0.4-2.1,0.4c-1.3,0-2.2-0.3-2.9-0.9c-0.7-0.6-1-1.4-1-2.3
			c0-0.6,0.1-1.1,0.4-1.5c0.3-0.5,0.6-0.8,1-1.1s0.9-0.5,1.4-0.6c0.4-0.1,1-0.2,1.7-0.3c1.6-0.2,2.7-0.4,3.4-0.7c0-0.3,0-0.4,0-0.5
			c0-0.8-0.2-1.3-0.5-1.7c-0.5-0.4-1.2-0.7-2.2-0.7c-0.9,0-1.6,0.2-2,0.5s-0.8,0.9-1,1.7l-1.9-0.3c0.2-0.8,0.5-1.5,0.8-2
			c0.4-0.5,1-0.9,1.7-1.2s1.6-0.4,2.6-0.4s1.8,0.1,2.4,0.3s1.1,0.5,1.3,0.9c0.3,0.3,0.5,0.8,0.6,1.3c0.1,0.3,0.1,0.9,0.1,1.8v2.6
			c0,1.8,0,2.9,0.1,3.4s0.2,0.9,0.5,1.4h-2C88.7,59.2,88.5,58.7,88.5,58.2z M88.3,53.9c-0.7,0.3-1.8,0.5-3.2,0.7
			c-0.8,0.1-1.4,0.2-1.7,0.4c-0.3,0.1-0.6,0.4-0.8,0.6c-0.2,0.3-0.3,0.6-0.3,0.9c0,0.5,0.2,0.9,0.6,1.3c0.4,0.3,1,0.5,1.7,0.5
			s1.4-0.2,2-0.5s1-0.8,1.3-1.3c0.2-0.4,0.3-1.1,0.3-1.9L88.3,53.9L88.3,53.9z"/>
		<path class="st1" d="M101.8,58.2c-0.7,0.6-1.4,1-2.1,1.3s-1.4,0.4-2.1,0.4c-1.3,0-2.2-0.3-2.9-0.9c-0.7-0.6-1-1.4-1-2.3
			c0-0.6,0.1-1.1,0.4-1.5c0.3-0.5,0.6-0.8,1-1.1s0.9-0.5,1.4-0.6c0.4-0.1,1-0.2,1.7-0.3c1.6-0.2,2.7-0.4,3.4-0.7c0-0.3,0-0.4,0-0.5
			c0-0.8-0.2-1.3-0.5-1.7c-0.5-0.4-1.2-0.7-2.2-0.7c-0.9,0-1.6,0.2-2,0.5s-0.8,0.9-1,1.7L94,51.4c0.2-0.8,0.5-1.5,0.8-2
			c0.4-0.5,1-0.9,1.7-1.2s1.6-0.4,2.6-0.4s1.8,0.1,2.4,0.3s1.1,0.5,1.3,0.9c0.3,0.3,0.5,0.8,0.6,1.3c0.1,0.3,0.1,0.9,0.1,1.8v2.6
			c0,1.8,0,2.9,0.1,3.4s0.2,0.9,0.5,1.4h-2C102,59.2,101.9,58.7,101.8,58.2z M101.6,53.9c-0.7,0.3-1.8,0.5-3.2,0.7
			c-0.8,0.1-1.4,0.2-1.7,0.4s-0.6,0.4-0.8,0.6c-0.2,0.3-0.3,0.6-0.3,0.9c0,0.5,0.2,0.9,0.6,1.3c0.4,0.3,1,0.5,1.7,0.5s1.4-0.2,2-0.5
			s1-0.8,1.3-1.3c0.2-0.4,0.3-1.1,0.3-1.9L101.6,53.9L101.6,53.9z"/>
		<path class="st1" d="M107.7,59.6V48.2h1.7v1.7c0.4-0.8,0.9-1.3,1.2-1.6s0.8-0.4,1.2-0.4c0.7,0,1.3,0.2,2,0.6l-0.7,1.8
			c-0.5-0.3-0.9-0.4-1.4-0.4c-0.4,0-0.8,0.1-1.1,0.4c-0.3,0.3-0.6,0.6-0.7,1.1c-0.2,0.7-0.3,1.4-0.3,2.3v6L107.7,59.6L107.7,59.6z"
			/>
		<path class="st1" d="M125.1,59.6h-1.8V43.9h1.9v5.6c0.8-1,1.9-1.5,3.1-1.5c0.7,0,1.4,0.1,2,0.4c0.6,0.3,1.1,0.7,1.5,1.2
			s0.7,1.1,1,1.9s0.3,1.5,0.3,2.3c0,2-0.5,3.5-1.5,4.5s-2.1,1.6-3.5,1.6c-1.3,0-2.4-0.6-3.2-1.7v1.4H125.1z M125.1,53.8
			c0,1.4,0.2,2.4,0.6,3c0.6,1,1.4,1.5,2.5,1.5c0.8,0,1.6-0.4,2.2-1.1c0.6-0.7,0.9-1.8,0.9-3.3s-0.3-2.6-0.9-3.3s-1.3-1.1-2.1-1.1
			s-1.6,0.4-2.2,1.1C125.4,51.4,125.1,52.4,125.1,53.8z"/>
		<path class="st1" d="M136,53.9c0-2.1,0.6-3.7,1.8-4.7c1-0.8,2.2-1.3,3.6-1.3c1.6,0,2.8,0.5,3.8,1.5s1.5,2.4,1.5,4.3
			c0,1.5-0.2,2.6-0.7,3.5c-0.4,0.8-1.1,1.5-1.9,2s-1.8,0.7-2.8,0.7c-1.6,0-2.9-0.5-3.9-1.5S136,55.8,136,53.9z M137.9,53.9
			c0,1.5,0.3,2.6,1,3.3c0.6,0.7,1.4,1.1,2.4,1.1s1.8-0.4,2.4-1.1c0.6-0.7,1-1.8,1-3.3c0-1.4-0.3-2.5-1-3.2c-0.6-0.7-1.4-1.1-2.4-1.1
			s-1.8,0.4-2.4,1.1C138.3,51.3,137.9,52.4,137.9,53.9z"/>
		<path class="st1" d="M153.2,59.6l-4.3-11.4h2l2.4,6.8c0.3,0.7,0.5,1.5,0.7,2.3c0.2-0.6,0.4-1.3,0.7-2.2l2.5-7h2L155,59.6H153.2z"
			/>
		<path class="st1" d="M169.9,55.9l2,0.2c-0.3,1.2-0.9,2.1-1.8,2.7s-1.9,1-3.3,1c-1.7,0-3-0.5-4-1.5s-1.5-2.5-1.5-4.3
			c0-1.9,0.5-3.4,1.5-4.5s2.3-1.6,3.8-1.6s2.8,0.5,3.7,1.6s1.5,2.5,1.5,4.4c0,0.1,0,0.3,0,0.5h-8.5c0.1,1.3,0.4,2.2,1.1,2.9
			s1.4,1,2.4,1c0.7,0,1.3-0.2,1.8-0.6S169.6,56.7,169.9,55.9z M163.6,52.8h6.4c-0.1-1-0.3-1.7-0.7-2.2c-0.6-0.7-1.4-1.1-2.4-1.1
			c-0.9,0-1.6,0.3-2.2,0.9C164,51,163.6,51.8,163.6,52.8z"/>
		<path class="st1" d="M175.4,59.6V48.2h1.7v1.6c0.8-1.3,2-1.9,3.6-1.9c0.7,0,1.3,0.1,1.9,0.4c0.6,0.2,1,0.6,1.3,1s0.5,0.9,0.6,1.4
			c0.1,0.4,0.1,1,0.1,1.9v7h-1.9v-6.9c0-0.8-0.1-1.4-0.2-1.8c-0.2-0.4-0.4-0.7-0.8-0.9c-0.4-0.2-0.8-0.3-1.3-0.3
			c-0.8,0-1.5,0.3-2.1,0.8s-0.9,1.5-0.9,3v6.2h-2V59.6z"/>
	</g>
</g>
<path id="Path_51" class="st1" d="M88.4,0.5c0.9-0.7,2.2-0.7,3.1,0l23.5,18c2.2,1.7,0.7,6.2-2.8,4.6L89.9,6L68.1,22.8
	c-4.3,1.2-4.3-2.7-3.2-4.3L88.4,0.5z"/>
</svg>
