<svg xmlns="http://www.w3.org/2000/svg" width="54.364" height="46" viewBox="0 0 54.364 46">
  <g id="right-quotation-mark" transform="translate(54.364 82.547) rotate(180)">
    <g id="Group_7" data-name="Group 7" transform="translate(0 36.547)">
      <path id="Path_48" data-name="Path 48" d="M18.819,36.547H6.273a6.051,6.051,0,0,0-4.444,1.829A6.05,6.05,0,0,0,0,42.82V55.365a6.048,6.048,0,0,0,1.829,4.443,6.052,6.052,0,0,0,4.444,1.83h7.318a3.123,3.123,0,0,1,3.136,3.137v1.045a8.059,8.059,0,0,1-2.45,5.913,8.059,8.059,0,0,1-5.914,2.45H6.273A2.011,2.011,0,0,0,4.8,74.8a2.009,2.009,0,0,0-.621,1.47v4.182a2.011,2.011,0,0,0,.621,1.47,2.012,2.012,0,0,0,1.471.621H8.364a16.3,16.3,0,0,0,6.486-1.324,16.852,16.852,0,0,0,5.342-3.578A16.858,16.858,0,0,0,23.768,72.3a16.3,16.3,0,0,0,1.323-6.485v-23a6.246,6.246,0,0,0-6.272-6.272Z" transform="translate(0 -36.547)" fill="#3a3b3c"/>
      <path id="Path_49" data-name="Path 49" d="M279.078,38.376a6.049,6.049,0,0,0-4.443-1.829H262.089a6.246,6.246,0,0,0-6.272,6.273V55.365a6.246,6.246,0,0,0,6.272,6.272h7.318a3.123,3.123,0,0,1,3.137,3.137v1.045a8.366,8.366,0,0,1-8.364,8.363h-2.091A2.121,2.121,0,0,0,260,76.274v4.182a2.121,2.121,0,0,0,2.091,2.091h2.091a16.3,16.3,0,0,0,6.485-1.324,16.571,16.571,0,0,0,8.919-8.919,16.3,16.3,0,0,0,1.323-6.485v-23A6.047,6.047,0,0,0,279.078,38.376Z" transform="translate(-226.543 -36.547)" fill="#3a3b3c"/>
    </g>
  </g>
</svg>
