<svg xmlns="http://www.w3.org/2000/svg" width="37.37" height="30.311" viewBox="0 0 37.37 30.311">
  <path id="Path_2" data-name="Path 2" d="M49.834,32.311c14.118,0,21.8-11.626,21.8-21.8V9.474A16.876,16.876,0,0,0,75.37,5.529a17.234,17.234,0,0,1-4.36,1.246,8.077,8.077,0,0,0,3.322-4.152,19.042,19.042,0,0,1-4.775,1.868A7.414,7.414,0,0,0,63.951,2,7.8,7.8,0,0,0,56.27,9.682a4.047,4.047,0,0,0,.208,1.661A21.465,21.465,0,0,1,40.7,3.246,7.951,7.951,0,0,0,39.661,7.19a8.249,8.249,0,0,0,3.322,6.436,7,7,0,0,1-3.529-1.038h0a7.587,7.587,0,0,0,6.228,7.474,6.4,6.4,0,0,1-2.076.208,3.533,3.533,0,0,1-1.453-.208,7.865,7.865,0,0,0,7.266,5.4,15.675,15.675,0,0,1-9.55,3.322A5.748,5.748,0,0,1,38,28.574a19.6,19.6,0,0,0,11.834,3.737" transform="translate(-38 -2)" fill="#fff" fill-rule="evenodd"/>
</svg>
